<svg xmlns="http://www.w3.org/2000/svg" xml:space="preserve" viewBox="0 0 178 178"><path fill="#d7d3fc" d="M119 179c-26.02 0-52.042 0-78.253-.357-5.442-1.547-10.754-2.528-15.922-4.01-2.828-.811-5.414-2.471-9.02-4.18 7.418-6.505 15.472-6.585 23.037-7.504.688 1.923 1.097 4.356 2.226 4.756 9.349 3.31 18.831 6.243 28.472 9.354v-44.922l-20.15 1.333V42.436L63 43.788V1c1.389 0 2.778 0 4.33.375a439.847 439.847 0 0 0 24.25 3.652c9.508 1.172 19.036 2.177 28.812 3.283v42.454l14.618 2.167v73.754l-13.239 1.428v34.271c7.131 2.138 14.86 1.63 20.865 7.857-2.144 1.386-3.63 2.892-5.398 3.385-4.947 1.38-10.029 2.271-15.017 3.517-1.156.288-2.152 1.22-3.221 1.857M85.063 18.343l-11.058.952c0 3.194.341 6.185-.073 9.069-.794 5.533 3.548 4.417 6.341 5.188 3.633 1.002 3.494-1.814 3.911-4.087m15.667 128.03c0-7.485-.01-14.97.006-22.455.005-2.691.48-5.27-3.848-5.201-3.94.063-4.138 2.034-4.107 5.031.103 9.812.037 19.626.04 29.44 0 7.125.003 7.125 7.909 8.056v-14.872m12.673-121.37.736-13.142-11.468-1.016c1.446 6.75-1.269 18.057 6.995 15.15 1.138-.423 2.506-.224 3.737-.993z"/><path fill="#8685BE" d="M38.842 162.949c.054-10.405.054-20.378.054-30.85-3.858-.737-7.624-1.18-11.19-2.273-1.423-.436-3.426-2.302-3.436-3.53-.2-25.622-.15-51.245-.15-77.16 4.967-1.436 9.678-3.032 14.504-4.116 3.838-.863 5.427-2.47 5.215-6.725-.414-8.303.042-16.646-.197-24.962-.105-3.684.741-5.668 4.689-6.668C52.9 5.508 57.21 3.333 61.317 1.3c.127-.3.572-.3 1.35-.3C63 15.098 63 29.196 63 43.788l-13.61-1.352v91.034l20.15-1.333v44.922c-9.64-3.111-19.123-6.044-28.472-9.354-1.13-.4-1.538-2.833-2.226-4.756z"/><path fill="#8A8AC2" d="M99.851 157.993v14.373c-7.906-.931-7.908-.931-7.91-8.056-.002-9.814.064-19.628-.039-29.44-.031-2.997.167-4.968 4.107-5.031 4.328-.07 3.853 2.51 3.848 5.201-.016 7.485-.006 14.97-.006 22.953z"/><path fill="#707185" d="M84.72 28.973c-1.797.033-.97-2.871-1.196-3.055 10.132.19 10.434-.007 17.82.906.765.286.323 2.86 1.089 3.147-5.279-.699-11.154-1.691-17.713-.998z" style="stroke-width:2.62584"/><path d="M81.007 33.676a11.235 11.235 0 0 1-.851-.184c-.256-.067-1.04-.193-1.742-.28-2.395-.3-3.101-.539-3.784-1.286-.679-.743-.878-1.775-.665-3.44.162-1.264.215-3.876.138-6.796-.062-2.308-.06-2.345.092-2.375.425-.083 10.724-.915 10.77-.87.028.03-.023 1.003-.115 2.164-.431 3.632-.763 12.623-3.05 13.096-.223.018-.58.005-.793-.03zM105.507 37.432c-1.086-.301-1.857-1.15-2.313-2.545-.493-1.51-.633-2.712-.827-7.113-.679-8.902 1.003-5.72 10.851-4.756.023.026-.728 13.063-.754 13.086-.016.015-.17.098-.344.185-2.098.506-4.535 1.337-6.613 1.143z" style="opacity:.88631;fill:#fff;fill-opacity:1;stroke:#9c58ff;stroke-width:1.88976;stroke-dasharray:none;stroke-opacity:1"/></svg>