<?xml version="1.0" standalone="no"?>
<!DOCTYPE svg PUBLIC "-//W3C//DTD SVG 20010904//EN"
 "http://www.w3.org/TR/2001/REC-SVG-20010904/DTD/svg10.dtd">
<svg version="1.0" xmlns="http://www.w3.org/2000/svg"
 width="200.000000pt" height="200.000000pt" viewBox="0 0 200.000000 200.000000"
 preserveAspectRatio="xMidYMid meet">
<metadata>
Created by potrace 1.14, written by Peter Selinger 2001-2017
</metadata>
<g transform="translate(0.000000,200.000000) scale(0.100000,-0.100000)"
fill="#000000" stroke="none">
<path d="M265 1990 c-39 -9 -100 -35 -120 -52 -65 -53 -114 -125 -132 -192
-10 -35 -10 -1417 -1 -1476 5 -30 14 -57 19 -61 6 -3 10 -9 10 -13 -3 -15 32
-68 67 -102 44 -43 103 -75 152 -83 19 -2 361 -5 760 -5 l725 -1 67 33 c91 45
155 121 177 212 3 14 6 362 6 774 0 593 -3 750 -13 754 -6 2 -10 7 -7 12 3 5
-2 15 -10 24 -9 8 -16 19 -15 23 0 15 -71 93 -86 93 -8 0 -13 4 -10 9 3 5 -20
19 -52 32 l-57 24 -725 1 c-399 0 -738 -3 -755 -6z"/>
</g>
</svg>
