<svg version="1.0" xmlns="http://www.w3.org/2000/svg" width="933.333" height="933.333" viewBox="0 0 700 700"><path d="M240.5 5.3c-5.8 3.8-30.9 14.6-43.8 18.8-16.7 5.5-19.8 7.3-22.8 13.2-2.1 4-2.1 5.1-2 55.6.1 28.4.2 55.3.2 59.9.1 9-1.2 13-5.7 17.5-2.5 2.5-10.6 6.2-15.8 7.1-3.9.7-21 5.4-37.1 10.2-8.2 2.5-15.8 4.8-16.8 5-1.7.5-1.8 7-1.6 152.7.1 168.2-.4 154.7 6.9 160.9 4.8 4.2 12.8 6.6 35.3 10.5l15.8 2.8-.1 60.7-.1 60.8-2.7.1c-1.5 0-3.4.2-4.3.4-.8.1-4.2.6-7.5.9-26.1 2.8-39.4 6.1-54.9 13.7-7.5 3.6-19.6 11.9-20.3 13.8-.5 1.6 28.3 15 38.9 18 5.8 1.7 11.4 3.2 12.5 3.4 1 .2 3 .7 4.4 1 1.4.4 9.2 2.3 17.3 4.2l14.8 3.5h161.5c141.7 0 161.8-.2 163.8-1.5 1.2-.8 4.2-1.9 6.7-2.4 5.3-1.1 7.2-1.6 12.4-2.9 2.2-.6 5.1-1.3 6.5-1.6 3.4-.6 5.2-1 23-5.2 17.1-4 19.4-5 29.2-12.2l6.8-4.9-2.8-2.5c-10.3-9.8-29.6-18.4-47.7-21.3-1.6-.3-4.1-.8-5.5-1-1.4-.3-3.6-.7-5-1-1.4-.3-6.7-1.4-11.7-2.6l-9.3-2.1v-67.4c0-37.1.3-67.4.8-67.5.4 0 1.4-.2 2.2-.3.8-.2 4.7-.6 8.5-1 9.9-.9 15.5-1.5 19-2.1 1.7-.2 6.4-.7 10.5-1.1 4.1-.4 8.2-.8 9-.9 1.3-.2 1.5-17.2 1.8-145.3l.2-145-4.2-.7c-2.4-.4-5.4-.8-6.8-1-1.4-.2-4.3-.6-6.5-1-2.2-.3-5.3-.7-7-1-4-.5-10.4-1.5-13.5-2-3.4-.6-7.6-1.2-13.4-2-2.7-.3-5.2-.8-5.5-1-.4-.2-.6-37.7-.6-83.4s-.3-83.2-.7-83.2c-.5-.1-1.1-.2-1.5-.3-.5-.1-4.2-.6-8.3-1-4.1-.5-8.2-1-9-1.1-1.6-.3-12.7-1.6-17.5-2-7.3-.7-16.2-1.6-19-2-1.6-.3-5.5-.7-8.5-1-3-.3-7-.8-8.7-1-1.8-.3-5.7-.7-8.5-1.1-2.9-.3-8.7-.9-12.8-1.4-4.1-.5-10-1.2-13-1.5-3-.3-6.6-.8-8-1-1.4-.2-7.9-1.1-14.5-1.9-6.6-.9-13.1-1.8-14.5-2-1.4-.2-4.7-.7-7.5-1.1-8.9-1.2-11.6-1.6-38.5-6.1C268.5 6 254.5 4 252 4h-4.5l.2 4.5c.1 2.5-.2 4.5-.7 4.5-.4 0-.7-1.2-.5-2.8.8-5.8-1.7-7.8-6-4.9zm7.3 18.4-.2 9.8-.5-9c-.3-5-.5-9.3-.3-9.8.9-2.1 1.2.3 1 9zm-.1 14c-.3 1-.5.4-.5-1.2 0-1.7.2-2.4.5-1.8.2.7.2 2.1 0 3zm0 10.5c-.3.8-.6.5-.6-.6-.1-1.1.2-1.7.5-1.3.3.3.4 1.2.1 1.9zm65.3 70.2c0 .2-.8 1-1.7 1.7-1.6 1.3-1.7 1.2-.4-.4 1.3-1.6 2.1-2.1 2.1-1.3zm103.4 26.2c.3.8.2 1.2-.4.9-.6-.3-1-1-1-1.6 0-1.4.7-1.1 1.4.7z"/></svg>