<svg version="1.0" xmlns="http://www.w3.org/2000/svg" width="266.667" height="266.667" viewBox="0 0 200 200"><path d="M26.5 1c-3.9.9-10 3.5-12 5.2C8 11.5 3.1 18.7 1.3 25.4c-1 3.5-1 141.7-.1 147.6.5 3 1.4 5.7 1.9 6.1.6.3 1 .9 1 1.3-.3 1.5 3.2 6.8 6.7 10.2 4.4 4.3 10.3 7.5 15.2 8.3 1.9.2 36.1.5 76 .5l72.5.1 6.7-3.3c9.1-4.5 15.5-12.1 17.7-21.2.3-1.4.6-36.2.6-77.4 0-59.3-.3-75-1.3-75.4-.6-.2-1-.7-.7-1.2.3-.5-.2-1.5-1-2.4-.9-.8-1.6-1.9-1.5-2.3 0-1.5-7.1-9.3-8.6-9.3-.8 0-1.3-.4-1-.9.3-.5-2-1.9-5.2-3.2L174.5.5 102 .4C62.1.4 28.2.7 26.5 1z"/></svg>